<svg xmlns="http://www.w3.org/2000/svg" viewBox="0 0 900 1315" font-family="'JetBrains Mono','Courier New',monospace">
  <defs>
    <radialGradient id="bgGlow" cx="30%" cy="0%" r="90%">
      <stop offset="0%" stop-color="#1A1408"/>
      <stop offset="100%" stop-color="#0A0904"/>
    </radialGradient>
    <filter id="softGlow" x="-20%" y="-20%" width="140%" height="140%">
      <feGaussianBlur stdDeviation="1.1" result="blur"/>
      <feMerge>
        <feMergeNode in="blur"/>
        <feMergeNode in="SourceGraphic"/>
      </feMerge>
    </filter>
  </defs>

  <rect x="0" y="0" width="900" height="1315" fill="url(#bgGlow)"/>

  <!-- scanline texture -->
  <g opacity="0.05">
    <line x1="0" y1="0" x2="900" y2="0" stroke="#D6923A" stroke-width="1"/><line x1="0" y1="4" x2="900" y2="4" stroke="#D6923A" stroke-width="1"/><line x1="0" y1="8" x2="900" y2="8" stroke="#D6923A" stroke-width="1"/><line x1="0" y1="12" x2="900" y2="12" stroke="#D6923A" stroke-width="1"/><line x1="0" y1="16" x2="900" y2="16" stroke="#D6923A" stroke-width="1"/><line x1="0" y1="20" x2="900" y2="20" stroke="#D6923A" stroke-width="1"/><line x1="0" y1="24" x2="900" y2="24" stroke="#D6923A" stroke-width="1"/><line x1="0" y1="28" x2="900" y2="28" stroke="#D6923A" stroke-width="1"/><line x1="0" y1="32" x2="900" y2="32" stroke="#D6923A" stroke-width="1"/><line x1="0" y1="36" x2="900" y2="36" stroke="#D6923A" stroke-width="1"/><line x1="0" y1="40" x2="900" y2="40" stroke="#D6923A" stroke-width="1"/><line x1="0" y1="44" x2="900" y2="44" stroke="#D6923A" stroke-width="1"/><line x1="0" y1="48" x2="900" y2="48" stroke="#D6923A" stroke-width="1"/><line x1="0" y1="52" x2="900" y2="52" stroke="#D6923A" stroke-width="1"/><line x1="0" y1="56" x2="900" y2="56" stroke="#D6923A" stroke-width="1"/><line x1="0" y1="60" x2="900" y2="60" stroke="#D6923A" stroke-width="1"/><line x1="0" y1="64" x2="900" y2="64" stroke="#D6923A" stroke-width="1"/><line x1="0" y1="68" x2="900" y2="68" stroke="#D6923A" stroke-width="1"/><line x1="0" y1="72" x2="900" y2="72" stroke="#D6923A" stroke-width="1"/><line x1="0" y1="76" x2="900" y2="76" stroke="#D6923A" stroke-width="1"/><line x1="0" y1="80" x2="900" y2="80" stroke="#D6923A" stroke-width="1"/><line x1="0" y1="84" x2="900" y2="84" stroke="#D6923A" stroke-width="1"/><line x1="0" y1="88" x2="900" y2="88" stroke="#D6923A" stroke-width="1"/><line x1="0" y1="92" x2="900" y2="92" stroke="#D6923A" stroke-width="1"/><line x1="0" y1="96" x2="900" y2="96" stroke="#D6923A" stroke-width="1"/><line x1="0" y1="100" x2="900" y2="100" stroke="#D6923A" stroke-width="1"/><line x1="0" y1="104" x2="900" y2="104" stroke="#D6923A" stroke-width="1"/><line x1="0" y1="108" x2="900" y2="108" stroke="#D6923A" stroke-width="1"/><line x1="0" y1="112" x2="900" y2="112" stroke="#D6923A" stroke-width="1"/><line x1="0" y1="116" x2="900" y2="116" stroke="#D6923A" stroke-width="1"/><line x1="0" y1="120" x2="900" y2="120" stroke="#D6923A" stroke-width="1"/><line x1="0" y1="124" x2="900" y2="124" stroke="#D6923A" stroke-width="1"/><line x1="0" y1="128" x2="900" y2="128" stroke="#D6923A" stroke-width="1"/><line x1="0" y1="132" x2="900" y2="132" stroke="#D6923A" stroke-width="1"/><line x1="0" y1="136" x2="900" y2="136" stroke="#D6923A" stroke-width="1"/><line x1="0" y1="140" x2="900" y2="140" stroke="#D6923A" stroke-width="1"/><line x1="0" y1="144" x2="900" y2="144" stroke="#D6923A" stroke-width="1"/><line x1="0" y1="148" x2="900" y2="148" stroke="#D6923A" stroke-width="1"/><line x1="0" y1="152" x2="900" y2="152" stroke="#D6923A" stroke-width="1"/><line x1="0" y1="156" x2="900" y2="156" stroke="#D6923A" stroke-width="1"/><line x1="0" y1="160" x2="900" y2="160" stroke="#D6923A" stroke-width="1"/><line x1="0" y1="164" x2="900" y2="164" stroke="#D6923A" stroke-width="1"/><line x1="0" y1="168" x2="900" y2="168" stroke="#D6923A" stroke-width="1"/><line x1="0" y1="172" x2="900" y2="172" stroke="#D6923A" stroke-width="1"/><line x1="0" y1="176" x2="900" y2="176" stroke="#D6923A" stroke-width="1"/><line x1="0" y1="180" x2="900" y2="180" stroke="#D6923A" stroke-width="1"/><line x1="0" y1="184" x2="900" y2="184" stroke="#D6923A" stroke-width="1"/><line x1="0" y1="188" x2="900" y2="188" stroke="#D6923A" stroke-width="1"/><line x1="0" y1="192" x2="900" y2="192" stroke="#D6923A" stroke-width="1"/><line x1="0" y1="196" x2="900" y2="196" stroke="#D6923A" stroke-width="1"/><line x1="0" y1="200" x2="900" y2="200" stroke="#D6923A" stroke-width="1"/><line x1="0" y1="204" x2="900" y2="204" stroke="#D6923A" stroke-width="1"/><line x1="0" y1="208" x2="900" y2="208" stroke="#D6923A" stroke-width="1"/><line x1="0" y1="212" x2="900" y2="212" stroke="#D6923A" stroke-width="1"/><line x1="0" y1="216" x2="900" y2="216" stroke="#D6923A" stroke-width="1"/><line x1="0" y1="220" x2="900" y2="220" stroke="#D6923A" stroke-width="1"/><line x1="0" y1="224" x2="900" y2="224" stroke="#D6923A" stroke-width="1"/><line x1="0" y1="228" x2="900" y2="228" stroke="#D6923A" stroke-width="1"/><line x1="0" y1="232" x2="900" y2="232" stroke="#D6923A" stroke-width="1"/><line x1="0" y1="236" x2="900" y2="236" stroke="#D6923A" stroke-width="1"/><line x1="0" y1="240" x2="900" y2="240" stroke="#D6923A" stroke-width="1"/><line x1="0" y1="244" x2="900" y2="244" stroke="#D6923A" stroke-width="1"/><line x1="0" y1="248" x2="900" y2="248" stroke="#D6923A" stroke-width="1"/><line x1="0" y1="252" x2="900" y2="252" stroke="#D6923A" stroke-width="1"/><line x1="0" y1="256" x2="900" y2="256" stroke="#D6923A" stroke-width="1"/><line x1="0" y1="260" x2="900" y2="260" stroke="#D6923A" stroke-width="1"/><line x1="0" y1="264" x2="900" y2="264" stroke="#D6923A" stroke-width="1"/><line x1="0" y1="268" x2="900" y2="268" stroke="#D6923A" stroke-width="1"/><line x1="0" y1="272" x2="900" y2="272" stroke="#D6923A" stroke-width="1"/><line x1="0" y1="276" x2="900" y2="276" stroke="#D6923A" stroke-width="1"/><line x1="0" y1="280" x2="900" y2="280" stroke="#D6923A" stroke-width="1"/><line x1="0" y1="284" x2="900" y2="284" stroke="#D6923A" stroke-width="1"/><line x1="0" y1="288" x2="900" y2="288" stroke="#D6923A" stroke-width="1"/><line x1="0" y1="292" x2="900" y2="292" stroke="#D6923A" stroke-width="1"/><line x1="0" y1="296" x2="900" y2="296" stroke="#D6923A" stroke-width="1"/><line x1="0" y1="300" x2="900" y2="300" stroke="#D6923A" stroke-width="1"/><line x1="0" y1="304" x2="900" y2="304" stroke="#D6923A" stroke-width="1"/><line x1="0" y1="308" x2="900" y2="308" stroke="#D6923A" stroke-width="1"/><line x1="0" y1="312" x2="900" y2="312" stroke="#D6923A" stroke-width="1"/><line x1="0" y1="316" x2="900" y2="316" stroke="#D6923A" stroke-width="1"/><line x1="0" y1="320" x2="900" y2="320" stroke="#D6923A" stroke-width="1"/><line x1="0" y1="324" x2="900" y2="324" stroke="#D6923A" stroke-width="1"/><line x1="0" y1="328" x2="900" y2="328" stroke="#D6923A" stroke-width="1"/><line x1="0" y1="332" x2="900" y2="332" stroke="#D6923A" stroke-width="1"/><line x1="0" y1="336" x2="900" y2="336" stroke="#D6923A" stroke-width="1"/><line x1="0" y1="340" x2="900" y2="340" stroke="#D6923A" stroke-width="1"/><line x1="0" y1="344" x2="900" y2="344" stroke="#D6923A" stroke-width="1"/><line x1="0" y1="348" x2="900" y2="348" stroke="#D6923A" stroke-width="1"/><line x1="0" y1="352" x2="900" y2="352" stroke="#D6923A" stroke-width="1"/><line x1="0" y1="356" x2="900" y2="356" stroke="#D6923A" stroke-width="1"/><line x1="0" y1="360" x2="900" y2="360" stroke="#D6923A" stroke-width="1"/><line x1="0" y1="364" x2="900" y2="364" stroke="#D6923A" stroke-width="1"/><line x1="0" y1="368" x2="900" y2="368" stroke="#D6923A" stroke-width="1"/><line x1="0" y1="372" x2="900" y2="372" stroke="#D6923A" stroke-width="1"/><line x1="0" y1="376" x2="900" y2="376" stroke="#D6923A" stroke-width="1"/><line x1="0" y1="380" x2="900" y2="380" stroke="#D6923A" stroke-width="1"/><line x1="0" y1="384" x2="900" y2="384" stroke="#D6923A" stroke-width="1"/><line x1="0" y1="388" x2="900" y2="388" stroke="#D6923A" stroke-width="1"/><line x1="0" y1="392" x2="900" y2="392" stroke="#D6923A" stroke-width="1"/><line x1="0" y1="396" x2="900" y2="396" stroke="#D6923A" stroke-width="1"/><line x1="0" y1="400" x2="900" y2="400" stroke="#D6923A" stroke-width="1"/><line x1="0" y1="404" x2="900" y2="404" stroke="#D6923A" stroke-width="1"/><line x1="0" y1="408" x2="900" y2="408" stroke="#D6923A" stroke-width="1"/><line x1="0" y1="412" x2="900" y2="412" stroke="#D6923A" stroke-width="1"/><line x1="0" y1="416" x2="900" y2="416" stroke="#D6923A" stroke-width="1"/><line x1="0" y1="420" x2="900" y2="420" stroke="#D6923A" stroke-width="1"/><line x1="0" y1="424" x2="900" y2="424" stroke="#D6923A" stroke-width="1"/><line x1="0" y1="428" x2="900" y2="428" stroke="#D6923A" stroke-width="1"/><line x1="0" y1="432" x2="900" y2="432" stroke="#D6923A" stroke-width="1"/><line x1="0" y1="436" x2="900" y2="436" stroke="#D6923A" stroke-width="1"/><line x1="0" y1="440" x2="900" y2="440" stroke="#D6923A" stroke-width="1"/><line x1="0" y1="444" x2="900" y2="444" stroke="#D6923A" stroke-width="1"/><line x1="0" y1="448" x2="900" y2="448" stroke="#D6923A" stroke-width="1"/><line x1="0" y1="452" x2="900" y2="452" stroke="#D6923A" stroke-width="1"/><line x1="0" y1="456" x2="900" y2="456" stroke="#D6923A" stroke-width="1"/><line x1="0" y1="460" x2="900" y2="460" stroke="#D6923A" stroke-width="1"/><line x1="0" y1="464" x2="900" y2="464" stroke="#D6923A" stroke-width="1"/><line x1="0" y1="468" x2="900" y2="468" stroke="#D6923A" stroke-width="1"/><line x1="0" y1="472" x2="900" y2="472" stroke="#D6923A" stroke-width="1"/><line x1="0" y1="476" x2="900" y2="476" stroke="#D6923A" stroke-width="1"/><line x1="0" y1="480" x2="900" y2="480" stroke="#D6923A" stroke-width="1"/><line x1="0" y1="484" x2="900" y2="484" stroke="#D6923A" stroke-width="1"/><line x1="0" y1="488" x2="900" y2="488" stroke="#D6923A" stroke-width="1"/><line x1="0" y1="492" x2="900" y2="492" stroke="#D6923A" stroke-width="1"/><line x1="0" y1="496" x2="900" y2="496" stroke="#D6923A" stroke-width="1"/><line x1="0" y1="500" x2="900" y2="500" stroke="#D6923A" stroke-width="1"/><line x1="0" y1="504" x2="900" y2="504" stroke="#D6923A" stroke-width="1"/><line x1="0" y1="508" x2="900" y2="508" stroke="#D6923A" stroke-width="1"/><line x1="0" y1="512" x2="900" y2="512" stroke="#D6923A" stroke-width="1"/><line x1="0" y1="516" x2="900" y2="516" stroke="#D6923A" stroke-width="1"/><line x1="0" y1="520" x2="900" y2="520" stroke="#D6923A" stroke-width="1"/><line x1="0" y1="524" x2="900" y2="524" stroke="#D6923A" stroke-width="1"/><line x1="0" y1="528" x2="900" y2="528" stroke="#D6923A" stroke-width="1"/><line x1="0" y1="532" x2="900" y2="532" stroke="#D6923A" stroke-width="1"/><line x1="0" y1="536" x2="900" y2="536" stroke="#D6923A" stroke-width="1"/><line x1="0" y1="540" x2="900" y2="540" stroke="#D6923A" stroke-width="1"/><line x1="0" y1="544" x2="900" y2="544" stroke="#D6923A" stroke-width="1"/><line x1="0" y1="548" x2="900" y2="548" stroke="#D6923A" stroke-width="1"/><line x1="0" y1="552" x2="900" y2="552" stroke="#D6923A" stroke-width="1"/><line x1="0" y1="556" x2="900" y2="556" stroke="#D6923A" stroke-width="1"/><line x1="0" y1="560" x2="900" y2="560" stroke="#D6923A" stroke-width="1"/><line x1="0" y1="564" x2="900" y2="564" stroke="#D6923A" stroke-width="1"/><line x1="0" y1="568" x2="900" y2="568" stroke="#D6923A" stroke-width="1"/><line x1="0" y1="572" x2="900" y2="572" stroke="#D6923A" stroke-width="1"/><line x1="0" y1="576" x2="900" y2="576" stroke="#D6923A" stroke-width="1"/><line x1="0" y1="580" x2="900" y2="580" stroke="#D6923A" stroke-width="1"/><line x1="0" y1="584" x2="900" y2="584" stroke="#D6923A" stroke-width="1"/><line x1="0" y1="588" x2="900" y2="588" stroke="#D6923A" stroke-width="1"/><line x1="0" y1="592" x2="900" y2="592" stroke="#D6923A" stroke-width="1"/><line x1="0" y1="596" x2="900" y2="596" stroke="#D6923A" stroke-width="1"/><line x1="0" y1="600" x2="900" y2="600" stroke="#D6923A" stroke-width="1"/><line x1="0" y1="604" x2="900" y2="604" stroke="#D6923A" stroke-width="1"/><line x1="0" y1="608" x2="900" y2="608" stroke="#D6923A" stroke-width="1"/><line x1="0" y1="612" x2="900" y2="612" stroke="#D6923A" stroke-width="1"/><line x1="0" y1="616" x2="900" y2="616" stroke="#D6923A" stroke-width="1"/><line x1="0" y1="620" x2="900" y2="620" stroke="#D6923A" stroke-width="1"/><line x1="0" y1="624" x2="900" y2="624" stroke="#D6923A" stroke-width="1"/><line x1="0" y1="628" x2="900" y2="628" stroke="#D6923A" stroke-width="1"/><line x1="0" y1="632" x2="900" y2="632" stroke="#D6923A" stroke-width="1"/><line x1="0" y1="636" x2="900" y2="636" stroke="#D6923A" stroke-width="1"/><line x1="0" y1="640" x2="900" y2="640" stroke="#D6923A" stroke-width="1"/><line x1="0" y1="644" x2="900" y2="644" stroke="#D6923A" stroke-width="1"/><line x1="0" y1="648" x2="900" y2="648" stroke="#D6923A" stroke-width="1"/><line x1="0" y1="652" x2="900" y2="652" stroke="#D6923A" stroke-width="1"/><line x1="0" y1="656" x2="900" y2="656" stroke="#D6923A" stroke-width="1"/><line x1="0" y1="660" x2="900" y2="660" stroke="#D6923A" stroke-width="1"/><line x1="0" y1="664" x2="900" y2="664" stroke="#D6923A" stroke-width="1"/><line x1="0" y1="668" x2="900" y2="668" stroke="#D6923A" stroke-width="1"/><line x1="0" y1="672" x2="900" y2="672" stroke="#D6923A" stroke-width="1"/><line x1="0" y1="676" x2="900" y2="676" stroke="#D6923A" stroke-width="1"/><line x1="0" y1="680" x2="900" y2="680" stroke="#D6923A" stroke-width="1"/><line x1="0" y1="684" x2="900" y2="684" stroke="#D6923A" stroke-width="1"/><line x1="0" y1="688" x2="900" y2="688" stroke="#D6923A" stroke-width="1"/><line x1="0" y1="692" x2="900" y2="692" stroke="#D6923A" stroke-width="1"/><line x1="0" y1="696" x2="900" y2="696" stroke="#D6923A" stroke-width="1"/><line x1="0" y1="700" x2="900" y2="700" stroke="#D6923A" stroke-width="1"/><line x1="0" y1="704" x2="900" y2="704" stroke="#D6923A" stroke-width="1"/><line x1="0" y1="708" x2="900" y2="708" stroke="#D6923A" stroke-width="1"/><line x1="0" y1="712" x2="900" y2="712" stroke="#D6923A" stroke-width="1"/><line x1="0" y1="716" x2="900" y2="716" stroke="#D6923A" stroke-width="1"/><line x1="0" y1="720" x2="900" y2="720" stroke="#D6923A" stroke-width="1"/><line x1="0" y1="724" x2="900" y2="724" stroke="#D6923A" stroke-width="1"/><line x1="0" y1="728" x2="900" y2="728" stroke="#D6923A" stroke-width="1"/><line x1="0" y1="732" x2="900" y2="732" stroke="#D6923A" stroke-width="1"/><line x1="0" y1="736" x2="900" y2="736" stroke="#D6923A" stroke-width="1"/><line x1="0" y1="740" x2="900" y2="740" stroke="#D6923A" stroke-width="1"/><line x1="0" y1="744" x2="900" y2="744" stroke="#D6923A" stroke-width="1"/><line x1="0" y1="748" x2="900" y2="748" stroke="#D6923A" stroke-width="1"/><line x1="0" y1="752" x2="900" y2="752" stroke="#D6923A" stroke-width="1"/><line x1="0" y1="756" x2="900" y2="756" stroke="#D6923A" stroke-width="1"/><line x1="0" y1="760" x2="900" y2="760" stroke="#D6923A" stroke-width="1"/><line x1="0" y1="764" x2="900" y2="764" stroke="#D6923A" stroke-width="1"/><line x1="0" y1="768" x2="900" y2="768" stroke="#D6923A" stroke-width="1"/><line x1="0" y1="772" x2="900" y2="772" stroke="#D6923A" stroke-width="1"/><line x1="0" y1="776" x2="900" y2="776" stroke="#D6923A" stroke-width="1"/><line x1="0" y1="780" x2="900" y2="780" stroke="#D6923A" stroke-width="1"/><line x1="0" y1="784" x2="900" y2="784" stroke="#D6923A" stroke-width="1"/><line x1="0" y1="788" x2="900" y2="788" stroke="#D6923A" stroke-width="1"/><line x1="0" y1="792" x2="900" y2="792" stroke="#D6923A" stroke-width="1"/><line x1="0" y1="796" x2="900" y2="796" stroke="#D6923A" stroke-width="1"/><line x1="0" y1="800" x2="900" y2="800" stroke="#D6923A" stroke-width="1"/><line x1="0" y1="804" x2="900" y2="804" stroke="#D6923A" stroke-width="1"/><line x1="0" y1="808" x2="900" y2="808" stroke="#D6923A" stroke-width="1"/><line x1="0" y1="812" x2="900" y2="812" stroke="#D6923A" stroke-width="1"/><line x1="0" y1="816" x2="900" y2="816" stroke="#D6923A" stroke-width="1"/><line x1="0" y1="820" x2="900" y2="820" stroke="#D6923A" stroke-width="1"/><line x1="0" y1="824" x2="900" y2="824" stroke="#D6923A" stroke-width="1"/><line x1="0" y1="828" x2="900" y2="828" stroke="#D6923A" stroke-width="1"/><line x1="0" y1="832" x2="900" y2="832" stroke="#D6923A" stroke-width="1"/><line x1="0" y1="836" x2="900" y2="836" stroke="#D6923A" stroke-width="1"/><line x1="0" y1="840" x2="900" y2="840" stroke="#D6923A" stroke-width="1"/><line x1="0" y1="844" x2="900" y2="844" stroke="#D6923A" stroke-width="1"/><line x1="0" y1="848" x2="900" y2="848" stroke="#D6923A" stroke-width="1"/><line x1="0" y1="852" x2="900" y2="852" stroke="#D6923A" stroke-width="1"/><line x1="0" y1="856" x2="900" y2="856" stroke="#D6923A" stroke-width="1"/><line x1="0" y1="860" x2="900" y2="860" stroke="#D6923A" stroke-width="1"/><line x1="0" y1="864" x2="900" y2="864" stroke="#D6923A" stroke-width="1"/><line x1="0" y1="868" x2="900" y2="868" stroke="#D6923A" stroke-width="1"/><line x1="0" y1="872" x2="900" y2="872" stroke="#D6923A" stroke-width="1"/><line x1="0" y1="876" x2="900" y2="876" stroke="#D6923A" stroke-width="1"/><line x1="0" y1="880" x2="900" y2="880" stroke="#D6923A" stroke-width="1"/><line x1="0" y1="884" x2="900" y2="884" stroke="#D6923A" stroke-width="1"/><line x1="0" y1="888" x2="900" y2="888" stroke="#D6923A" stroke-width="1"/><line x1="0" y1="892" x2="900" y2="892" stroke="#D6923A" stroke-width="1"/><line x1="0" y1="896" x2="900" y2="896" stroke="#D6923A" stroke-width="1"/><line x1="0" y1="900" x2="900" y2="900" stroke="#D6923A" stroke-width="1"/><line x1="0" y1="904" x2="900" y2="904" stroke="#D6923A" stroke-width="1"/><line x1="0" y1="908" x2="900" y2="908" stroke="#D6923A" stroke-width="1"/><line x1="0" y1="912" x2="900" y2="912" stroke="#D6923A" stroke-width="1"/><line x1="0" y1="916" x2="900" y2="916" stroke="#D6923A" stroke-width="1"/><line x1="0" y1="920" x2="900" y2="920" stroke="#D6923A" stroke-width="1"/><line x1="0" y1="924" x2="900" y2="924" stroke="#D6923A" stroke-width="1"/><line x1="0" y1="928" x2="900" y2="928" stroke="#D6923A" stroke-width="1"/><line x1="0" y1="932" x2="900" y2="932" stroke="#D6923A" stroke-width="1"/><line x1="0" y1="936" x2="900" y2="936" stroke="#D6923A" stroke-width="1"/><line x1="0" y1="940" x2="900" y2="940" stroke="#D6923A" stroke-width="1"/><line x1="0" y1="944" x2="900" y2="944" stroke="#D6923A" stroke-width="1"/><line x1="0" y1="948" x2="900" y2="948" stroke="#D6923A" stroke-width="1"/><line x1="0" y1="952" x2="900" y2="952" stroke="#D6923A" stroke-width="1"/><line x1="0" y1="956" x2="900" y2="956" stroke="#D6923A" stroke-width="1"/><line x1="0" y1="960" x2="900" y2="960" stroke="#D6923A" stroke-width="1"/><line x1="0" y1="964" x2="900" y2="964" stroke="#D6923A" stroke-width="1"/><line x1="0" y1="968" x2="900" y2="968" stroke="#D6923A" stroke-width="1"/><line x1="0" y1="972" x2="900" y2="972" stroke="#D6923A" stroke-width="1"/><line x1="0" y1="976" x2="900" y2="976" stroke="#D6923A" stroke-width="1"/><line x1="0" y1="980" x2="900" y2="980" stroke="#D6923A" stroke-width="1"/><line x1="0" y1="984" x2="900" y2="984" stroke="#D6923A" stroke-width="1"/><line x1="0" y1="988" x2="900" y2="988" stroke="#D6923A" stroke-width="1"/><line x1="0" y1="992" x2="900" y2="992" stroke="#D6923A" stroke-width="1"/><line x1="0" y1="996" x2="900" y2="996" stroke="#D6923A" stroke-width="1"/><line x1="0" y1="1000" x2="900" y2="1000" stroke="#D6923A" stroke-width="1"/><line x1="0" y1="1004" x2="900" y2="1004" stroke="#D6923A" stroke-width="1"/><line x1="0" y1="1008" x2="900" y2="1008" stroke="#D6923A" stroke-width="1"/><line x1="0" y1="1012" x2="900" y2="1012" stroke="#D6923A" stroke-width="1"/><line x1="0" y1="1016" x2="900" y2="1016" stroke="#D6923A" stroke-width="1"/><line x1="0" y1="1020" x2="900" y2="1020" stroke="#D6923A" stroke-width="1"/><line x1="0" y1="1024" x2="900" y2="1024" stroke="#D6923A" stroke-width="1"/><line x1="0" y1="1028" x2="900" y2="1028" stroke="#D6923A" stroke-width="1"/><line x1="0" y1="1032" x2="900" y2="1032" stroke="#D6923A" stroke-width="1"/><line x1="0" y1="1036" x2="900" y2="1036" stroke="#D6923A" stroke-width="1"/><line x1="0" y1="1040" x2="900" y2="1040" stroke="#D6923A" stroke-width="1"/><line x1="0" y1="1044" x2="900" y2="1044" stroke="#D6923A" stroke-width="1"/><line x1="0" y1="1048" x2="900" y2="1048" stroke="#D6923A" stroke-width="1"/><line x1="0" y1="1052" x2="900" y2="1052" stroke="#D6923A" stroke-width="1"/><line x1="0" y1="1056" x2="900" y2="1056" stroke="#D6923A" stroke-width="1"/><line x1="0" y1="1060" x2="900" y2="1060" stroke="#D6923A" stroke-width="1"/><line x1="0" y1="1064" x2="900" y2="1064" stroke="#D6923A" stroke-width="1"/><line x1="0" y1="1068" x2="900" y2="1068" stroke="#D6923A" stroke-width="1"/><line x1="0" y1="1072" x2="900" y2="1072" stroke="#D6923A" stroke-width="1"/><line x1="0" y1="1076" x2="900" y2="1076" stroke="#D6923A" stroke-width="1"/><line x1="0" y1="1080" x2="900" y2="1080" stroke="#D6923A" stroke-width="1"/><line x1="0" y1="1084" x2="900" y2="1084" stroke="#D6923A" stroke-width="1"/><line x1="0" y1="1088" x2="900" y2="1088" stroke="#D6923A" stroke-width="1"/><line x1="0" y1="1092" x2="900" y2="1092" stroke="#D6923A" stroke-width="1"/><line x1="0" y1="1096" x2="900" y2="1096" stroke="#D6923A" stroke-width="1"/><line x1="0" y1="1100" x2="900" y2="1100" stroke="#D6923A" stroke-width="1"/><line x1="0" y1="1104" x2="900" y2="1104" stroke="#D6923A" stroke-width="1"/><line x1="0" y1="1108" x2="900" y2="1108" stroke="#D6923A" stroke-width="1"/><line x1="0" y1="1112" x2="900" y2="1112" stroke="#D6923A" stroke-width="1"/><line x1="0" y1="1116" x2="900" y2="1116" stroke="#D6923A" stroke-width="1"/><line x1="0" y1="1120" x2="900" y2="1120" stroke="#D6923A" stroke-width="1"/><line x1="0" y1="1124" x2="900" y2="1124" stroke="#D6923A" stroke-width="1"/><line x1="0" y1="1128" x2="900" y2="1128" stroke="#D6923A" stroke-width="1"/><line x1="0" y1="1132" x2="900" y2="1132" stroke="#D6923A" stroke-width="1"/><line x1="0" y1="1136" x2="900" y2="1136" stroke="#D6923A" stroke-width="1"/><line x1="0" y1="1140" x2="900" y2="1140" stroke="#D6923A" stroke-width="1"/><line x1="0" y1="1144" x2="900" y2="1144" stroke="#D6923A" stroke-width="1"/><line x1="0" y1="1148" x2="900" y2="1148" stroke="#D6923A" stroke-width="1"/><line x1="0" y1="1152" x2="900" y2="1152" stroke="#D6923A" stroke-width="1"/><line x1="0" y1="1156" x2="900" y2="1156" stroke="#D6923A" stroke-width="1"/><line x1="0" y1="1160" x2="900" y2="1160" stroke="#D6923A" stroke-width="1"/><line x1="0" y1="1164" x2="900" y2="1164" stroke="#D6923A" stroke-width="1"/><line x1="0" y1="1168" x2="900" y2="1168" stroke="#D6923A" stroke-width="1"/><line x1="0" y1="1172" x2="900" y2="1172" stroke="#D6923A" stroke-width="1"/><line x1="0" y1="1176" x2="900" y2="1176" stroke="#D6923A" stroke-width="1"/><line x1="0" y1="1180" x2="900" y2="1180" stroke="#D6923A" stroke-width="1"/><line x1="0" y1="1184" x2="900" y2="1184" stroke="#D6923A" stroke-width="1"/><line x1="0" y1="1188" x2="900" y2="1188" stroke="#D6923A" stroke-width="1"/><line x1="0" y1="1192" x2="900" y2="1192" stroke="#D6923A" stroke-width="1"/><line x1="0" y1="1196" x2="900" y2="1196" stroke="#D6923A" stroke-width="1"/><line x1="0" y1="1200" x2="900" y2="1200" stroke="#D6923A" stroke-width="1"/><line x1="0" y1="1204" x2="900" y2="1204" stroke="#D6923A" stroke-width="1"/><line x1="0" y1="1208" x2="900" y2="1208" stroke="#D6923A" stroke-width="1"/><line x1="0" y1="1212" x2="900" y2="1212" stroke="#D6923A" stroke-width="1"/><line x1="0" y1="1216" x2="900" y2="1216" stroke="#D6923A" stroke-width="1"/><line x1="0" y1="1220" x2="900" y2="1220" stroke="#D6923A" stroke-width="1"/><line x1="0" y1="1224" x2="900" y2="1224" stroke="#D6923A" stroke-width="1"/><line x1="0" y1="1228" x2="900" y2="1228" stroke="#D6923A" stroke-width="1"/><line x1="0" y1="1232" x2="900" y2="1232" stroke="#D6923A" stroke-width="1"/><line x1="0" y1="1236" x2="900" y2="1236" stroke="#D6923A" stroke-width="1"/><line x1="0" y1="1240" x2="900" y2="1240" stroke="#D6923A" stroke-width="1"/><line x1="0" y1="1244" x2="900" y2="1244" stroke="#D6923A" stroke-width="1"/><line x1="0" y1="1248" x2="900" y2="1248" stroke="#D6923A" stroke-width="1"/><line x1="0" y1="1252" x2="900" y2="1252" stroke="#D6923A" stroke-width="1"/><line x1="0" y1="1256" x2="900" y2="1256" stroke="#D6923A" stroke-width="1"/><line x1="0" y1="1260" x2="900" y2="1260" stroke="#D6923A" stroke-width="1"/><line x1="0" y1="1264" x2="900" y2="1264" stroke="#D6923A" stroke-width="1"/><line x1="0" y1="1268" x2="900" y2="1268" stroke="#D6923A" stroke-width="1"/><line x1="0" y1="1272" x2="900" y2="1272" stroke="#D6923A" stroke-width="1"/><line x1="0" y1="1276" x2="900" y2="1276" stroke="#D6923A" stroke-width="1"/><line x1="0" y1="1280" x2="900" y2="1280" stroke="#D6923A" stroke-width="1"/><line x1="0" y1="1284" x2="900" y2="1284" stroke="#D6923A" stroke-width="1"/><line x1="0" y1="1288" x2="900" y2="1288" stroke="#D6923A" stroke-width="1"/><line x1="0" y1="1292" x2="900" y2="1292" stroke="#D6923A" stroke-width="1"/><line x1="0" y1="1296" x2="900" y2="1296" stroke="#D6923A" stroke-width="1"/><line x1="0" y1="1300" x2="900" y2="1300" stroke="#D6923A" stroke-width="1"/><line x1="0" y1="1304" x2="900" y2="1304" stroke="#D6923A" stroke-width="1"/><line x1="0" y1="1308" x2="900" y2="1308" stroke="#D6923A" stroke-width="1"/><line x1="0" y1="1312" x2="900" y2="1312" stroke="#D6923A" stroke-width="1"/>
  </g>

  <!-- title -->
  <text x="40" y="42" font-size="23" font-weight="800" fill="#FFC24D" filter="url(#softGlow)"
        letter-spacing="2">6809 FORTH — MEMORY MAP</text>
  <text x="40" y="64" font-size="12.5" fill="#B8935A" letter-spacing="1">64K ADDRESS SPACE · SUBROUTINE-THREADED · 16-BIT CELL</text>
  <line x1="40" y1="78" x2="860" y2="78" stroke="#4A3818" stroke-width="1"/>
  <text x="40" y="100" font-size="10.5" fill="#8A7245" font-style="italic">block heights are log-scaled for legibility — not linear with actual byte size</text>
  <text x="40" y="116" font-size="10.5" fill="#8A7245">high addresses at top, low addresses at bottom — standard memory-map orientation</text>

  <!-- ruler -->
  <line x1="60" y1="158" x2="60" y2="1157" stroke="#5A4526" stroke-width="1.5"/>
    <line x1="55" y1="158.0" x2="65" y2="158.0" stroke="#D6923A" stroke-width="1.5"/>
    <text x="50" y="158.0" font-family="'JetBrains Mono','Courier New',monospace" font-size="10.5"
          fill="#D6923A" text-anchor="end" dominant-baseline="middle">$FFFF</text>
    <line x1="55" y1="457.7" x2="65" y2="457.7" stroke="#D6923A" stroke-width="1.5"/>
    <text x="50" y="457.7" font-family="'JetBrains Mono','Courier New',monospace" font-size="10.5"
          fill="#D6923A" text-anchor="end" dominant-baseline="middle">$8000</text>
    <line x1="55" y1="707.5" x2="65" y2="707.5" stroke="#D6923A" stroke-width="1.5"/>
    <text x="50" y="707.5" font-family="'JetBrains Mono','Courier New',monospace" font-size="10.5"
          fill="#D6923A" text-anchor="end" dominant-baseline="middle">$4000</text>
    <line x1="55" y1="957.2" x2="65" y2="957.2" stroke="#D6923A" stroke-width="1.5"/>
    <text x="50" y="957.2" font-family="'JetBrains Mono','Courier New',monospace" font-size="10.5"
          fill="#D6923A" text-anchor="end" dominant-baseline="middle">$1000</text>
    <line x1="55" y1="1157.0" x2="65" y2="1157.0" stroke="#D6923A" stroke-width="1.5"/>
    <text x="50" y="1157.0" font-family="'JetBrains Mono','Courier New',monospace" font-size="10.5"
          fill="#D6923A" text-anchor="end" dominant-baseline="middle">$0000</text>

  <!-- region blocks -->
  
    <g>
      <rect x="150" y="158.0" width="560" height="28" rx="3"
            fill="#3A2A12" stroke="#D6923A" stroke-width="1.2" opacity="0.92"/>
      <text x="164" y="170.0" font-family="'JetBrains Mono','Courier New',monospace"
            font-size="12.5" font-weight="700" fill="#F5D9A3" dominant-baseline="middle">VECTORS</text>
      <text x="164" y="184.0" font-size="9.5" fill="#C9AE85" dominant-baseline="middle">hardware vectors</text>
      <text x="700" y="172.0" font-family="'JetBrains Mono','Courier New',monospace"
            font-size="11" fill="#D6923A" text-anchor="end" dominant-baseline="middle" font-weight="600">$FFF0–$FFFF</text>
    </g>
    <g>
      <rect x="150" y="189.0" width="560" height="42" rx="3"
            fill="#3A2A12" stroke="#D6923A" stroke-width="1.2" opacity="0.92"/>
      <text x="164" y="208.0" font-family="'JetBrains Mono','Courier New',monospace"
            font-size="12.5" font-weight="700" fill="#F5D9A3" dominant-baseline="middle">INITCODE</text>
      <text x="164" y="222.0" font-size="9.5" fill="#C9AE85" dominant-baseline="middle">COLDSTRT / WARM entry</text>
      <text x="700" y="210.0" font-family="'JetBrains Mono','Courier New',monospace"
            font-size="11" fill="#D6923A" text-anchor="end" dominant-baseline="middle" font-weight="600">$FFA2–$FFEF</text>
    </g>
    <g>
      <rect x="150" y="234.0" width="560" height="84" rx="3"
            fill="#3A2A12" stroke="#D6923A" stroke-width="1.2" opacity="0.92"/>
      <text x="164" y="274.0" font-family="'JetBrains Mono','Courier New',monospace"
            font-size="12.5" font-weight="700" fill="#F5D9A3" dominant-baseline="middle">BASECODE</text>
      <text x="164" y="288.0" font-size="9.5" fill="#C9AE85" dominant-baseline="middle">ROM primitives + system words</text>
      <text x="700" y="276.0" font-family="'JetBrains Mono','Courier New',monospace"
            font-size="11" fill="#D6923A" text-anchor="end" dominant-baseline="middle" font-weight="600">$DFF4–$FFA1</text>
    </g>
    <g>
      <rect x="150" y="321.0" width="560" height="71" rx="3"
            fill="#3A2A12" stroke="#D6923A" stroke-width="1.2" opacity="0.92"/>
      <text x="164" y="354.5" font-family="'JetBrains Mono','Courier New',monospace"
            font-size="12.5" font-weight="700" fill="#F5D9A3" dominant-baseline="middle">BASEDICT</text>
      <text x="164" y="368.5" font-size="9.5" fill="#C9AE85" dominant-baseline="middle">ROM dictionary headers</text>
      <text x="700" y="356.5" font-family="'JetBrains Mono','Courier New',monospace"
            font-size="11" fill="#D6923A" text-anchor="end" dominant-baseline="middle" font-weight="600">$D83F–$DFF3</text>
    </g>
    <g>
      <rect x="150" y="395.0" width="560" height="53" rx="3"
            fill="#3A1717" stroke="#D9584A" stroke-width="1.2" opacity="0.92"/>
      <text x="164" y="419.5" font-family="'JetBrains Mono','Courier New',monospace"
            font-size="12.5" font-weight="700" fill="#F5D9A3" dominant-baseline="middle">INOUT</text>
      <text x="164" y="433.5" font-size="9.5" fill="#C9AE85" dominant-baseline="middle">I/O block - ACIA regs at INOUT+8</text>
      <text x="700" y="421.5" font-family="'JetBrains Mono','Courier New',monospace"
            font-size="11" fill="#D9584A" text-anchor="end" dominant-baseline="middle" font-weight="600">$C000–$C0FF</text>
    </g>
    <g>
      <rect x="150" y="451.0" width="560" height="62" rx="3"
            fill="#132A3D" stroke="#5AA8DE" stroke-width="1.2" opacity="0.92"/>
      <text x="164" y="480.0" font-family="'JetBrains Mono','Courier New',monospace"
            font-size="12.5" font-weight="700" fill="#F5D9A3" dominant-baseline="middle">RSTACK</text>
      <text x="164" y="494.0" font-size="9.5" fill="#C9AE85" dominant-baseline="middle">return stack (S) — grows down</text>
      <text x="700" y="482.0" font-family="'JetBrains Mono','Courier New',monospace"
            font-size="11" fill="#5AA8DE" text-anchor="end" dominant-baseline="middle" font-weight="600">$BD00–$BFFF</text>
    </g>
    <g>
      <rect x="150" y="516.0" width="560" height="65" rx="3"
            fill="#132A3D" stroke="#5AA8DE" stroke-width="1.2" opacity="0.92"/>
      <text x="164" y="546.5" font-family="'JetBrains Mono','Courier New',monospace"
            font-size="12.5" font-weight="700" fill="#F5D9A3" dominant-baseline="middle">DSTACK</text>
      <text x="164" y="560.5" font-size="9.5" fill="#C9AE85" dominant-baseline="middle">data stack (U) — grows down</text>
      <text x="700" y="548.5" font-family="'JetBrains Mono','Courier New',monospace"
            font-size="11" fill="#5AA8DE" text-anchor="end" dominant-baseline="middle" font-weight="600">$B900–$BCFF</text>
    </g>
    <g>
      <rect x="150" y="584.0" width="560" height="91" rx="3"
            fill="#12341D" stroke="#4FCB7E" stroke-width="1.2" opacity="0.92"/>
      <text x="164" y="627.5" font-family="'JetBrains Mono','Courier New',monospace"
            font-size="12.5" font-weight="700" fill="#F5D9A3" dominant-baseline="middle">APPCODE</text>
      <text x="164" y="641.5" font-size="9.5" fill="#C9AE85" dominant-baseline="middle">application code (CODEHERE)</text>
      <text x="700" y="629.5" font-family="'JetBrains Mono','Courier New',monospace"
            font-size="11" fill="#4FCB7E" text-anchor="end" dominant-baseline="middle" font-weight="600">$7000–$B8FF</text>
    </g>
    <g>
      <rect x="150" y="678.0" width="560" height="92" rx="3"
            fill="#12341D" stroke="#4FCB7E" stroke-width="1.2" opacity="0.92"/>
      <text x="164" y="722.0" font-family="'JetBrains Mono','Courier New',monospace"
            font-size="12.5" font-weight="700" fill="#F5D9A3" dominant-baseline="middle">APPDICT</text>
      <text x="164" y="736.0" font-size="9.5" fill="#C9AE85" dominant-baseline="middle">application dictionary (DPHERE)</text>
      <text x="700" y="724.0" font-family="'JetBrains Mono','Courier New',monospace"
            font-size="11" fill="#4FCB7E" text-anchor="end" dominant-baseline="middle" font-weight="600">$2000–$6EA4</text>
    </g>
    <g>
      <rect x="150" y="773.0" width="560" height="83" rx="3"
            fill="#1E3D1E" stroke="#7ADE7A" stroke-width="1.2" opacity="0.92"/>
      <text x="164" y="812.5" font-family="'JetBrains Mono','Courier New',monospace"
            font-size="12.5" font-weight="700" fill="#F5D9A3" dominant-baseline="middle">APPVARS</text>
      <text x="164" y="826.5" font-size="9.5" fill="#C9AE85" dominant-baseline="middle">mutable var space (VARHERE)</text>
      <text x="700" y="814.5" font-family="'JetBrains Mono','Courier New',monospace"
            font-size="11" fill="#7ADE7A" text-anchor="end" dominant-baseline="middle" font-weight="600">$021B–$1FFF</text>
    </g>
    <g>
      <rect x="150" y="859.0" width="560" height="34" rx="3"
            fill="#2C1A3D" stroke="#B26AE0" stroke-width="1.2" opacity="0.92"/>
      <text x="164" y="874.0" font-family="'JetBrains Mono','Courier New',monospace"
            font-size="12.5" font-weight="700" fill="#F5D9A3" dominant-baseline="middle">SIBUF</text>
      <text x="164" y="888.0" font-size="9.5" fill="#C9AE85" dominant-baseline="middle">S" interpretation buffer</text>
      <text x="700" y="876.0" font-family="'JetBrains Mono','Courier New',monospace"
            font-size="11" fill="#B26AE0" text-anchor="end" dominant-baseline="middle" font-weight="600">$01FB–$021A</text>
    </g>
    <g>
      <rect x="150" y="896.0" width="560" height="34" rx="3"
            fill="#2C1A3D" stroke="#B26AE0" stroke-width="1.2" opacity="0.92"/>
      <text x="164" y="911.0" font-family="'JetBrains Mono','Courier New',monospace"
            font-size="12.5" font-weight="700" fill="#F5D9A3" dominant-baseline="middle">WORDBUF</text>
      <text x="164" y="925.0" font-size="9.5" fill="#C9AE85" dominant-baseline="middle">WORD scratch buffer</text>
      <text x="700" y="913.0" font-family="'JetBrains Mono','Courier New',monospace"
            font-size="11" fill="#B26AE0" text-anchor="end" dominant-baseline="middle" font-weight="600">$01DA–$01FA</text>
    </g>
    <g>
      <rect x="150" y="933.0" width="560" height="42" rx="3"
            fill="#2C1A3D" stroke="#B26AE0" stroke-width="1.2" opacity="0.92"/>
      <text x="164" y="952.0" font-family="'JetBrains Mono','Courier New',monospace"
            font-size="12.5" font-weight="700" fill="#F5D9A3" dominant-baseline="middle">TIBBUF</text>
      <text x="164" y="966.0" font-size="9.5" fill="#C9AE85" dominant-baseline="middle">terminal input buffer</text>
      <text x="700" y="954.0" font-family="'JetBrains Mono','Courier New',monospace"
            font-size="11" fill="#B26AE0" text-anchor="end" dominant-baseline="middle" font-weight="600">$018A–$01D9</text>
    </g>
    <g>
      <rect x="150" y="978.0" width="560" height="40" rx="3"
            fill="#3A1717" stroke="#D9584A" stroke-width="1.2" opacity="0.92"/>
      <text x="164" y="996.0" font-family="'JetBrains Mono','Courier New',monospace"
            font-size="12.5" font-weight="700" fill="#F5D9A3" dominant-baseline="middle">OUTBUF</text>
      <text x="164" y="1010.0" font-size="9.5" fill="#C9AE85" dominant-baseline="middle">output ring buffer</text>
      <text x="700" y="998.0" font-family="'JetBrains Mono','Courier New',monospace"
            font-size="11" fill="#D9584A" text-anchor="end" dominant-baseline="middle" font-weight="600">$014A–$0189</text>
    </g>
    <g>
      <rect x="150" y="1021.0" width="560" height="40" rx="3"
            fill="#3A1717" stroke="#D9584A" stroke-width="1.2" opacity="0.92"/>
      <text x="164" y="1039.0" font-family="'JetBrains Mono','Courier New',monospace"
            font-size="12.5" font-weight="700" fill="#F5D9A3" dominant-baseline="middle">INBUF</text>
      <text x="164" y="1053.0" font-size="9.5" fill="#C9AE85" dominant-baseline="middle">input ring buffer</text>
      <text x="700" y="1041.0" font-family="'JetBrains Mono','Courier New',monospace"
            font-size="11" fill="#D9584A" text-anchor="end" dominant-baseline="middle" font-weight="600">$010A–$0149</text>
    </g>
    <g>
      <rect x="150" y="1064.0" width="560" height="15" rx="3"
            fill="#3A1717" stroke="#D9584A" stroke-width="1.2" opacity="0.92"/>
      <text x="164" y="1071.5" font-family="'JetBrains Mono','Courier New',monospace"
            font-size="12.5" font-weight="700" fill="#F5D9A3" dominant-baseline="middle">SERBUF idx</text>
      
      <text x="700" y="1071.5" font-family="'JetBrains Mono','Courier New',monospace"
            font-size="11" fill="#D9584A" text-anchor="end" dominant-baseline="middle" font-weight="600">$0106–$0109</text>
    </g>
    <g>
      <rect x="150" y="1082.0" width="560" height="19" rx="3"
            fill="#1B3A38" stroke="#4FD9CB" stroke-width="1.2" opacity="0.92"/>
      <text x="164" y="1091.5" font-family="'JetBrains Mono','Courier New',monospace"
            font-size="12.5" font-weight="700" fill="#F5D9A3" dominant-baseline="middle">MVSCRATCH</text>
      
      <text x="700" y="1091.5" font-family="'JetBrains Mono','Courier New',monospace"
            font-size="11" fill="#4FD9CB" text-anchor="end" dominant-baseline="middle" font-weight="600">$0100–$0105</text>
    </g>
    <g>
      <rect x="150" y="1104.0" width="560" height="53" rx="3"
            fill="#1B3A38" stroke="#4FD9CB" stroke-width="1.2" opacity="0.92"/>
      <text x="164" y="1128.5" font-family="'JetBrains Mono','Courier New',monospace"
            font-size="12.5" font-weight="700" fill="#F5D9A3" dominant-baseline="middle">GLOBALS</text>
      <text x="164" y="1142.5" font-size="9.5" fill="#C9AE85" dominant-baseline="middle">shared globals — DP = $00</text>
      <text x="700" y="1130.5" font-family="'JetBrains Mono','Courier New',monospace"
            font-size="11" fill="#4FD9CB" text-anchor="end" dominant-baseline="middle" font-weight="600">$0000–$00FF</text>
    </g>

  <!-- DP annotation near globals -->
  <text x="722" y="1149" font-size="9.5" fill="#4FD9CB" text-anchor="start">◄ Direct Page (DP)</text>
  <text x="722" y="1162" font-size="9.5" fill="#4FD9CB" text-anchor="start">  set to $00 at reset</text>

  <!-- legend -->
  <text x="150" y="1183" font-size="10.5" fill="#8A7245" letter-spacing="1">REGION KEY</text>
  
    <rect x="150" y="1197" width="16" height="14" rx="2" fill="#3A2A12" stroke="#D6923A" stroke-width="1.2"/>
    <text x="172" y="1208" font-family="'JetBrains Mono','Courier New',monospace" font-size="10.5"
          fill="#E8CFA0" dominant-baseline="middle">ROM (fixed)</text>
    <rect x="340" y="1197" width="16" height="14" rx="2" fill="#12341D" stroke="#4FCB7E" stroke-width="1.2"/>
    <text x="362" y="1208" font-family="'JetBrains Mono','Courier New',monospace" font-size="10.5"
          fill="#E8CFA0" dominant-baseline="middle">RAM — grows up</text>
    <rect x="530" y="1197" width="16" height="14" rx="2" fill="#1E3D1E" stroke="#7ADE7A" stroke-width="1.2"/>
    <text x="552" y="1208" font-family="'JetBrains Mono','Courier New',monospace" font-size="10.5"
          fill="#E8CFA0" dominant-baseline="middle">RAM — grows up (vars)</text>
    <rect x="150" y="1223" width="16" height="14" rx="2" fill="#132A3D" stroke="#5AA8DE" stroke-width="1.2"/>
    <text x="172" y="1234" font-family="'JetBrains Mono','Courier New',monospace" font-size="10.5"
          fill="#E8CFA0" dominant-baseline="middle">Stack — grows down</text>
    <rect x="340" y="1223" width="16" height="14" rx="2" fill="#2C1A3D" stroke="#B26AE0" stroke-width="1.2"/>
    <text x="362" y="1234" font-family="'JetBrains Mono','Courier New',monospace" font-size="10.5"
          fill="#E8CFA0" dominant-baseline="middle">Fixed buffer</text>
    <rect x="530" y="1223" width="16" height="14" rx="2" fill="#3A1717" stroke="#D9584A" stroke-width="1.2"/>
    <text x="552" y="1234" font-family="'JetBrains Mono','Courier New',monospace" font-size="10.5"
          fill="#E8CFA0" dominant-baseline="middle">I/O / device</text>
    <rect x="150" y="1249" width="16" height="14" rx="2" fill="#1B3A38" stroke="#4FD9CB" stroke-width="1.2"/>
    <text x="172" y="1260" font-family="'JetBrains Mono','Courier New',monospace" font-size="10.5"
          fill="#E8CFA0" dominant-baseline="middle">RAM — fixed</text>
</svg>